<svg width="543" height="330" viewBox="0 0 543 330" fill="none" xmlns="http://www.w3.org/2000/svg">
<path fill-rule="evenodd" clip-rule="evenodd" d="M373.604 251C381.818 228.814 403.167 213 428.21 213C452.323 213 473.011 227.662 481.847 248.557L428.496 248.557V293.863H481.847C473.011 314.758 452.323 329.419 428.21 329.419C403.01 329.419 381.55 313.406 373.451 291L168 291L168 251L373.604 251Z" fill="black"/>
<path fill-rule="evenodd" clip-rule="evenodd" d="M120 329C152.033 329 178 303.033 178 271C178 238.967 152.033 213 120 213C87.9675 213 62 238.967 62 271C62 303.033 87.9675 329 120 329ZM119.5 295C133.031 295 144 284.031 144 270.5C144 256.969 133.031 246 119.5 246C105.969 246 95 256.969 95 270.5C95 284.031 105.969 295 119.5 295Z" fill="black"/>
<path fill-rule="evenodd" clip-rule="evenodd" d="M433.844 85.6968C435.113 89.3217 438.192 92.0369 441.948 92.8416C499.7 105.217 543 156.552 543 218C543 234.624 539.831 250.508 534.064 265.08C532.622 268.724 529.031 271 525.113 271H504C504 228.474 469.526 194 427 194C397.884 194 372.543 210.16 359.456 234H187.544C174.457 210.16 149.116 194 120 194C77.4741 194 43 228.474 43 271H20.3816C16.9049 271 13.6442 269.212 11.9934 266.152C4.34244 251.972 0 235.743 0 218.5C0 170.275 33.9667 129.983 79.2811 120.244C82.3714 119.58 85.0487 117.641 86.6421 114.911C104.067 85.0585 136.441 65 173.5 65C179.776 65 185.918 65.5753 191.876 66.6762C196.473 67.5255 201.183 65.4801 203.616 61.4882C226.083 24.6183 266.666 0 313 0C368.868 0 416.376 35.7921 433.844 85.6968Z" fill="black"/>
</svg>
